<?xml version="1.0" standalone="no"?>
<!DOCTYPE svg PUBLIC "-//W3C//DTD SVG 20010904//EN"
 "http://www.w3.org/TR/2001/REC-SVG-20010904/DTD/svg10.dtd">
<svg version="1.0" xmlns="http://www.w3.org/2000/svg"
 width="150.000000pt" height="58.000000pt" viewBox="0 0 150.000000 58.000000"
 preserveAspectRatio="xMidYMid meet">
<metadata>
Created by potrace 1.10, written by Peter Selinger 2001-2011
</metadata>
<g transform="translate(0.000000,58.000000) scale(0.100000,-0.100000)"
fill="#6aa84f" stroke="none">
<path d="M132 463 c-14 -13 -33 -65 -61 -171 -23 -84 -41 -161 -41 -171 0 -26
33 -52 67 -53 48 -1 74 12 89 48 20 48 18 64 -9 64 -16 0 -26 -9 -34 -30 -10
-28 -39 -40 -55 -24 -8 8 65 281 79 295 19 19 46 2 41 -26 -5 -22 -2 -25 23
-25 17 0 29 5 29 13 0 6 3 22 6 34 14 52 -87 86 -134 46z m103 -24 c11 -17 -1
-21 -15 -4 -8 9 -8 15 -2 15 6 0 14 -5 17 -11z m-149 -334 c17 -16 14 -18 -10
-9 -9 3 -16 10 -16 15 0 13 9 11 26 -6z"/>
<path d="M342 463 c-13 -12 -31 -56 -49 -123 -22 -81 -33 -104 -45 -102 -9 1
-18 -7 -22 -20 -9 -34 -8 -38 9 -32 19 8 19 -1 0 -62 -8 -27 -15 -50 -15 -51
0 -2 13 -3 28 -3 26 0 29 5 42 58 13 51 18 57 43 60 31 4 32 1 12 -64 -8 -27
-15 -50 -15 -51 0 -2 13 -3 28 -3 29 0 30 2 118 347 14 52 -87 86 -134 46z
m102 -29 c5 -14 4 -15 -9 -4 -17 14 -19 20 -6 20 5 0 12 -7 15 -16z m-28 -19
c3 -8 -5 -51 -18 -96 -21 -75 -25 -82 -50 -85 -16 -1 -28 0 -28 3 0 17 45 170
53 181 13 16 36 15 43 -3z m-113 -211 c-19 -14 -43 -18 -43 -7 0 3 7 15 17 25
12 14 19 15 30 7 11 -10 10 -14 -4 -25z m83 -11 c-10 -10 -19 5 -10 18 6 11 8
11 12 0 2 -7 1 -15 -2 -18z"/>
<path d="M552 463 c-14 -13 -33 -65 -61 -171 -23 -84 -41 -161 -41 -171 0 -43
78 -69 128 -42 11 6 27 31 35 56 l16 45 -27 0 c-21 0 -30 -7 -39 -30 -10 -28
-39 -40 -55 -24 -8 8 65 281 79 295 19 19 46 2 41 -26 -5 -22 -2 -25 23 -25
23 0 29 5 31 23 3 42 -2 62 -19 75 -24 18 -87 15 -111 -5z m103 -24 c11 -17
-1 -21 -15 -4 -8 9 -8 15 -2 15 6 0 14 -5 17 -11z m-140 -347 c-6 -8 -35 12
-35 24 0 11 4 10 18 -3 10 -10 18 -19 17 -21z"/>
<path d="M706 458 c-9 -34 -8 -35 23 -30 l28 4 -42 -154 c-63 -231 -60 -208
-25 -208 22 0 30 5 30 18 1 9 20 89 44 177 l43 160 30 3 c24 2 32 9 36 28 4
24 4 24 -78 24 -77 0 -83 -1 -89 -22z m86 -20 c-9 -9 -15 -9 -24 0 -9 9 -7 12
12 12 19 0 21 -3 12 -12z"/>
<path d="M900 475 c0 -2 -21 -81 -46 -175 -52 -190 -52 -215 -1 -228 31 -9 83
0 99 16 7 7 108 366 108 384 0 5 -11 8 -25 8 -27 0 -23 11 -83 -215 -29 -111
-41 -140 -56 -143 -10 -2 -22 0 -26 5 -4 4 13 86 39 181 l47 172 -28 0 c-15 0
-28 -2 -28 -5z m-37 -369 c4 -10 1 -13 -9 -9 -7 3 -14 9 -14 14 0 14 17 10 23
-5z"/>
<path d="M1113 458 c-21 -24 -43 -97 -43 -142 0 -19 10 -32 40 -51 22 -14 40
-28 40 -31 0 -3 -7 -30 -16 -60 -13 -47 -19 -54 -41 -54 -24 0 -25 2 -19 36 7
34 6 35 -20 32 -22 -2 -30 -10 -36 -36 -18 -68 43 -107 112 -74 29 14 38 27
52 72 22 72 22 117 1 135 -10 7 -28 22 -41 32 -21 17 -22 20 -9 63 11 38 17
45 37 45 21 0 25 -4 22 -27 -2 -24 1 -28 22 -28 39 0 51 63 18 93 -28 25 -94
22 -119 -5z m102 -19 c11 -17 -1 -21 -15 -4 -8 9 -8 15 -2 15 6 0 14 -5 17
-11z m-95 -140 c0 -6 -4 -7 -10 -4 -5 3 -10 11 -10 16 0 6 5 7 10 4 6 -3 10
-11 10 -16z m50 -41 c0 -12 -6 -9 -26 13 -19 22 -19 22 4 8 12 -8 22 -17 22
-21z m-94 -166 c-4 -3 -14 2 -24 12 -16 18 -16 18 6 6 13 -6 21 -14 18 -18z"/>
<path d="M1335 392 c6 -7 -38 -38 -48 -34 -5 1 -6 -2 -3 -7 3 -5 -1 -14 -9
-21 -16 -14 -18 -110 -2 -110 5 0 6 -4 2 -9 -12 -21 47 -51 99 -51 62 1 82 22
89 96 3 42 1 51 -17 61 -12 7 -15 12 -8 13 23 0 -49 58 -79 62 -16 3 -27 2
-24 0z m20 -22 c-3 -5 -14 -10 -23 -10 -13 0 -14 -2 -3 -9 9 -6 10 -14 4 -27
-13 -29 -10 -99 5 -99 6 0 12 -3 12 -7 0 -31 -1 -32 -10 -18 -6 10 -10 11 -10
3 0 -7 -4 -13 -10 -13 -5 0 -10 5 -10 11 0 7 -8 18 -17 26 -17 14 -17 14 0 9
16 -5 18 -1 11 39 -4 33 -3 45 6 45 7 0 10 8 7 20 -3 12 1 24 11 30 22 12 35
13 27 0z m29 -15 c-4 -9 0 -15 7 -15 12 0 12 -2 0 -9 -8 -5 -12 -18 -8 -30 3
-12 1 -24 -4 -27 -12 -7 -11 -27 2 -61 l11 -28 9 23 c5 14 5 31 -1 41 -6 12
-5 22 2 29 9 9 9 12 -2 12 -12 0 -12 3 1 15 16 16 49 11 49 -7 0 -6 -6 -6 -14
1 -12 10 -14 4 -14 -39 -1 -28 -8 -59 -16 -72 -9 -13 -16 -17 -16 -9 0 11 -3
11 -14 2 -13 -11 -15 -6 -14 29 0 23 -5 46 -12 50 -10 6 -10 16 0 46 7 22 14
45 16 52 2 6 8 12 13 12 6 0 8 -7 5 -15z m34 -20 c-3 -3 -9 2 -12 12 -6 14 -5
15 5 6 7 -7 10 -15 7 -18z m-131 -62 c-3 -10 -5 -4 -5 12 0 17 2 24 5 18 2 -7
2 -21 0 -30z m173 3 c0 -3 -4 -8 -10 -11 -5 -3 -10 -1 -10 4 0 6 5 11 10 11 6
0 10 -2 10 -4z m-20 -73 c-11 -17 -11 -17 -6 0 3 10 6 24 7 30 0 9 2 9 5 0 3
-7 0 -20 -6 -30z"/>
</g>
</svg>
